<svg xmlns="http://www.w3.org/2000/svg" width="24" height="24" viewBox="0 0 24 24"><path d="M12.023 3.6a.5.5 0 0 0-.348.129L2.52 11.877c-.384.345-.41.953-.062 1.33a.95.95 0 0 0 .695.305H4.67l-.014 6.563H1.84a.3.3 0 1 0 0 .6h20.39a.3.3 0 1 0 0-.6h-2.896v-6.562h1.516a.95.95 0 0 0 .695-.305c.347-.377.324-.985-.06-1.33l-.002-.002-2.873-2.562V4.887a.5.5 0 0 0-.5-.5h-3.252a.5.5 0 0 0-.5.5v.63l-2.016-1.8a.5.5 0 0 0-.318-.127zM12 4.762l2.516 2.244a.5.5 0 0 0 .832-.373V5.387h2.252v4.148a.5.5 0 0 0 .166.373l2.916 2.604h-1.857a.5.5 0 0 0-.5.5v7.063h-6.63v-5.678a.5.5 0 0 0-.5-.5h-3.28a.5.5 0 0 0-.5.5v5.678H5.656l.014-7.06a.5.5 0 0 0-.5-.502H3.314L12 4.762zm1.902 7.75a.5.5 0 0 0-.5.5v2.61a.5.5 0 0 0 .5.5h2.607a.5.5 0 0 0 .5-.5v-2.61a.5.5 0 0 0-.5-.5h-2.607zm.5 1h1.607v1.61h-1.607v-1.61zm-5.988 1.385h2.28v5.178h-2.28v-5.178z"/></svg>