<svg xmlns="http://www.w3.org/2000/svg" viewBox="0 0 512 512"><path d="M90.113 410.3l330.473-.374c13.214-.043 23.653-9.762 23.74-22.38l1.078-263.664c-.01-12.514-10.393-22.22-23.507-22.183l-330.587.08c-13.204.242-23.643 9.962-23.635 22.476L66.597 387.92c.014 12.614 10.298 22.326 23.516 22.383zM412.8 344.63l-89.54-95.258-35.687 36.078-73.048-77.34L98.33 344.624l.685-199.77c.736-5.442 5.74-9.6 11.448-9.568l291.536-.18c5.808.018 10.516 4.193 10.884 9.682.01.2.314.285.324.485zm-64.845-109.166c17.6 0 32-14.4 32-32s-14.3-32-32-32c-17.6 0-32 14.3-32 32a31.97 31.97 0 0 0 32 32z"/></svg>