<svg xmlns="http://www.w3.org/2000/svg" width="63.419" height="58.308" viewBox="0 0 16.78 15.427" xmlns:v="https://vecta.io/nano"><style><![CDATA[.B{fill:#2e2e2d}.C{stroke:#000}.D{stroke-width:10.165}.E{stroke-linecap:round}]]></style><g transform="matrix(.064503 0 0 .064503 -171.1006 75.35128)"><path d="M2769.236-929.727c-1.633-.862-3.083-2.984-3.338-4.884-.106-.787-.384-1.6-.618-1.785-.28-.232-18.527-.385-52.96-.446l-52.533-.093-1.452-.777c-2.23-1.194-3.423-2.342-4.56-4.397l-1.042-1.88-.09-84.655c-.1-93.748-.273-86.8 2.224-89.718.702-.82 2.012-1.923 2.91-2.45 1.464-.858 2.077-.976 5.95-1.144 2.376-.103 4.472-.346 4.658-.54s.395-3.687.463-7.76c.12-7.12.16-7.485 1.048-9.39 1.287-2.762 3.163-4.7 5.813-6.004 4.082-2 4.08-2 30.243 4.755l23.636 5.808c.604-.086.798-.422.964-1.664.245-1.836 1.284-2.853 2.918-2.856.61 0 6.483 1.388 13.053 3.087 13.915 3.598 13.63 3.45 13.63 7.025 0 1.996.1 2.293.794 2.605.436.194 5.316 1.534 10.843 2.977 9.363 2.445 10.105 2.588 10.873 2.084.453-.297 12.52-9.388 26.816-20.203l30.147-22.78c3.995-2.997 4.226-3.118 6.005-3.118 1.98 0 3.357.556 5.188 2.097l1.145.964 1.102-.666c3.24-1.958 4.965-2.647 6.623-2.647 4.205 0 7.477 3.233 8.927 8.82l.412 1.588 3.153.183c2.29.133 3.607.405 4.807.99 2.812 1.374 5 4.357 5.926 8.044l.362 1.457 2.694.4c4.6.686 7.68 2.942 9.596 7.05.888 1.906.93 2.27 1.048 9.39.068 4.075.277 7.567.463 7.76s2.276.44 4.644.55c4.647.213 5.568.507 7.85 2.512.694.6 1.69 1.916 2.2 2.904l.948 1.796V-944l-1.042 1.88c-1.138 2.055-2.33 3.204-4.56 4.397l-1.452.777-53.348.093-53.66.706c-.173.337-.408 1.223-.522 1.97-.268 1.74-1.675 3.576-3.424 4.468-1.293.66-2.073.7-12.768.687-10.657-.015-11.476-.06-12.715-.714zm-10.652-15.88c.13-.21.1-.512-.067-.668s-18.402-4.364-40.52-9.35l-42.023-9.875c-2.586-1.16-4.54-3.084-5.863-5.773l-1.15-2.336-.353-139.715-3.346-.102c-2.84-.087-3.413-.01-3.792.508-.357.49-.447 17.15-.447 83.368l.55 83.54.55.784h48.113l48.35-.384zm145.21-.2c.622-.562.645-3.62.645-83.54l-.447-83.568c-.38-.52-.95-.595-3.792-.508l-3.346.102-.353 139.7-.99 2.117c-1.204 2.58-3.026 4.53-5.325 5.707-1.772.907-3.957 1.42-56.514 13.31l-26.37 6.057c-.32.123-.584.445-.584.715 0 .418 7.238.49 48.215.49l48.86-.584zm-124.326-86.005l-.2-83.527c-.16-.16-4.314-1.315-9.234-2.57-6.693-1.706-9.062-2.18-9.413-1.89-.38.316-.468 5.06-.468 25.503 0 24.74-.01 25.125-.715 25.882-.937 1.005-2.236 1.307-3.455.802-.54-.224-3.194-2.623-5.898-5.332s-5.2-4.925-5.545-4.925-2.73.984-5.294 2.187c-5.34 2.504-6.612 2.7-7.89 1.215l-.836-.972v-52.156l-.794-.494c-1.025-.638-47.727-12.594-49.124-12.577-1.742.022-3.787 1.406-4.674 3.165l-.794 1.573v160.568l.794 1.566c1.06 2.09 2.317 2.74 7.633 3.95l48.194 10.893 44.803 10.192c.582.17 1.455.282 1.94.247l.882-.064zm35.958 57.44l30.184-24.413c.92-.887 1.856-2.173 2.082-2.857.307-.93.42-20.865.445-78.863l.034-77.62-.774-1.676c-.508-1.1-.993-1.675-1.41-1.672-.35 0-13.972 10.123-30.27 22.492l-29.633 22.488-.1 82.02.077 82.46c.092.243.32.44.506.44s13.17-10.26 28.85-22.8zm45.844 9.22c15.18-3.416 24.89-5.765 25.877-6.262 1.045-.525 1.85-1.274 2.376-2.206l.794-1.41v-161.22l-.788-1.39c-1.264-2.23-4.515-3.65-5.683-2.482-.525.525-.573 7.004-.573 77.742 0 85.216.17 78.96-2.24 82.468-.646.94-1.795 2.14-2.554 2.67s-10.43 4.363-21.488 8.52l-21.08 8.003c-1.258.575-1.237 1.036.046 1.036.56 0 11.95-2.46 25.312-5.467zm-10.572-7.946c17.18-6.452 23.843-9.11 24.556-9.8a5.82 5.82 0 0 0 1.338-2.183c.242-.838.326-27.885.257-82.24l-.104-81-.98-1.284c-1.38-1.808-3.238-2.336-5.072-1.44l-1.357.663-.176 78.14-.833 79.834c-1.414 3.647-2.34 4.293-23.488 16.395-10.757 6.156-19.63 11.415-19.715 11.687-.12.38.094.444.92.28.592-.118 11.686-4.2 24.653-9.07zm-26.238 1.367c.817-.416 9.38-5.267 19.027-10.78 12.983-7.42 17.75-10.317 18.344-11.15l.803-1.125.182-162.907-.86-1.877c-1.187-2.592-2.013-2.76-4.893-1-1.205.737-2.308 1.5-2.45 1.717s-.262 35.55-.265 78.54c-.01 85.388.12 80.04-1.96 83.197-1.584 2.404-2.85 3.517-15.51 13.626l-13.67 11.04c-1.724 1.598-1.14 1.933 1.25.717z"/><path d="M2701.16-1113.79l21.427 5.38" class="B C D E"/><circle r="5.481" cy="-1117.576" cx="2686.088"/><path d="M2769.083-1096.736l1.25.314m-69.173 3.336l21.427 5.38" class="B C D E"/><circle r="5.481" cy="-1096.871" cx="2686.088"/><path d="M2769.083-1076.032l1.25.314m-69.173 3.336l69.172 17.37" class="B C D E"/><circle r="5.481" cy="-1076.166" cx="2686.088"/><path d="M2701.16-1051.677l69.172 17.37" class="B C D E"/><circle r="5.481" cy="-1055.461" cx="2686.088"/><path d="M2701.16-1030.972l69.172 17.368" class="B C D E"/><circle r="5.481" cy="-1034.757" cx="2686.088"/><path d="M2701.16-1010.267l69.172 17.368" class="B C D E"/><circle r="5.481" cy="-1014.052" cx="2686.088"/><path d="M2701.16-989.562l69.172 17.368" class="B C D E"/><circle r="5.481" cy="-993.347" cx="2686.088"/><path d="M2795.15-1101.104l43.6-33.908m-43.6 57.027l43.6-33.908m-43.6 57.026l43.6-33.908m-43.6 57.027l43.6-33.908m-43.6 57.026l43.6-33.908m-43.6 57.038l43.6-33.908" class="B C D E"/></g></svg>